<svg width="12" height="9" viewBox="0 0 12 9" fill="none" xmlns="http://www.w3.org/2000/svg">
<path d="M10.875 0H1.125C0.503906 0 0 0.503906 0 1.125V7.875C0 8.49609 0.503906 9 1.125 9H10.875C11.4961 9 12 8.49609 12 7.875V1.125C12 0.503906 11.4961 0 10.875 0ZM4.87734 5.24297C4.94297 5.18438 5.04375 5.19375 5.09297 5.26406L5.55 5.91328C5.58984 5.96953 5.58516 6.04453 5.53828 6.09375C4.28203 7.425 1.48828 6.84609 1.48828 4.50234C1.48828 2.22188 4.34062 1.70156 5.53125 2.85938C5.58047 2.90625 5.58984 2.93437 5.55469 2.99297L5.14453 3.70781C5.1 3.78047 4.99922 3.80156 4.93125 3.74766C3.975 2.99766 2.71406 3.39844 2.71406 4.47891C2.71641 5.60391 3.91172 6.13125 4.87734 5.24297ZM9.80859 5.24297C9.87422 5.18438 9.975 5.19375 10.0242 5.26406L10.4813 5.91328C10.5211 5.96953 10.5164 6.04453 10.4695 6.09375C9.21563 7.42734 6.42188 6.84609 6.42188 4.50234C6.42188 2.22188 9.27422 1.70156 10.4648 2.85938C10.5141 2.90625 10.5234 2.93437 10.4883 2.99297L10.0781 3.70781C10.0336 3.78047 9.93281 3.80156 9.86484 3.74766C8.90859 2.99766 7.64766 3.39844 7.64766 4.47891C7.64766 5.60391 8.84297 6.13125 9.80859 5.24297Z" fill="black"/>
</svg>
