<svg width="187" height="58" viewBox="0 0 187 58" fill="none" xmlns="http://www.w3.org/2000/svg">
<path d="M12.9013 6.6414L0.20166 13.6728V27.581L4.63644 29.2037C7.09573 30.0922 9.19217 30.8263 9.39375 30.8263C9.55502 30.8649 9.67597 28.1992 9.67597 24.9153V19.0043L17.5779 14.6386C23.4641 11.3934 25.6412 10.3889 26.1653 10.6207C26.5685 10.8139 30.1566 12.7842 34.1882 14.9863L41.5258 19.0429L41.6064 24.9153L41.7274 30.7877L46.3637 29.2037L51.0001 27.581V13.7114L39.3084 7.25954C32.8981 3.66658 27.1732 0.498593 26.6088 0.189521C25.6009 -0.351355 25.1977 -0.158185 12.9013 6.6414Z" fill="#87F031"/>
<path d="M15.4411 23.5636C15.804 23.7568 16.1265 24.1045 16.1265 24.2977C16.1265 24.4909 15.804 24.684 15.4411 24.7613C14.9573 24.8386 15.9249 25.5726 18.102 26.7316C19.9565 27.7361 21.6095 28.5474 21.8514 28.5474C22.053 28.5474 22.1739 27.8134 22.0933 26.9634L21.9723 25.3408L18.9486 24.2591C15.8443 23.1387 14.0704 22.791 15.4411 23.5636Z" fill="#87F031"/>
<path d="M32.0514 24.2983C30.17 24.9937 29.1889 25.8823 29.1083 26.964C29.0277 27.814 29.1083 28.548 29.2696 28.548C29.5115 28.548 35.4379 25.5346 35.8814 25.1869C35.962 25.1096 35.8008 24.8778 35.4783 24.6846C35.0348 24.4142 35.0348 24.2596 35.4379 23.7574C36.2039 22.8688 35.4783 22.9847 32.0514 24.2983Z" fill="#87F031"/>
<path d="M0 36.2361V40.0609L4.83794 41.7608L9.63557 43.4221L9.75652 47.4786L9.87747 51.5352L17.336 54.1237C21.4482 55.5531 25.1573 56.7508 25.6008 56.7122C26.0443 56.7122 29.7534 55.5531 33.8656 54.0851L41.3241 51.4966L41.4451 47.44L41.566 43.3834L45.8798 41.9153C48.2585 41.0654 50.7178 40.1884 51 39.9566C51 39.1762 50.7581 33.2111 50.6734 32.3032C50.2783 32.3109 46.8071 33.5704 42.6949 35.0385L35.2767 37.6656L35.0751 41.6835L34.8735 45.7401L30.1968 47.4014L25.5202 49.024L20.9241 47.4014L16.3281 45.7401L16.1265 41.7222L15.9249 37.7042L8.50672 35.0771C4.39447 33.609 0 32.0366 0 32.3032C0 32.8402 0 33.3386 0 36.2361Z" fill="#87F031"/>
<path d="M25.6002 35.8835L23.0288 38.3477L25.6002 40.8118L28.1716 38.3477L25.6002 35.8835Z" fill="#87F031"/>
<path d="M78.12 37.48C76.84 37.48 75.768 37.2453 74.904 36.776C74.04 36.296 73.384 35.6667 72.936 34.888C72.4987 34.0987 72.28 33.2347 72.28 32.296C72.28 31.4213 72.4347 30.6533 72.744 29.992C73.0533 29.3307 73.512 28.7707 74.12 28.312C74.728 27.8427 75.4747 27.464 76.36 27.176C77.128 26.952 77.9973 26.7547 78.968 26.584C79.9387 26.4133 80.9573 26.2533 82.024 26.104C83.1013 25.9547 84.168 25.8053 85.224 25.656L84.008 26.328C84.0293 24.9733 83.7413 23.9707 83.144 23.32C82.5573 22.6587 81.544 22.328 80.104 22.328C79.1973 22.328 78.3653 22.5413 77.608 22.968C76.8507 23.384 76.3227 24.0773 76.024 25.048L72.904 24.088C73.3307 22.6053 74.1413 21.4267 75.336 20.552C76.5413 19.6773 78.1413 19.24 80.136 19.24C81.6827 19.24 83.0267 19.5067 84.168 20.04C85.32 20.5627 86.1627 21.3947 86.696 22.536C86.9733 23.1013 87.144 23.6987 87.208 24.328C87.272 24.9573 87.304 25.6347 87.304 26.36V37H84.344V33.048L84.92 33.56C84.2053 34.8827 83.2933 35.8693 82.184 36.52C81.0853 37.16 79.7307 37.48 78.12 37.48ZM78.712 34.744C79.6613 34.744 80.4773 34.5787 81.16 34.248C81.8427 33.9067 82.392 33.4747 82.808 32.952C83.224 32.4293 83.496 31.8853 83.624 31.32C83.8053 30.808 83.9067 30.232 83.928 29.592C83.96 28.952 83.976 28.44 83.976 28.056L85.064 28.456C84.008 28.616 83.048 28.76 82.184 28.888C81.32 29.016 80.536 29.144 79.832 29.272C79.1387 29.3893 78.52 29.5333 77.976 29.704C77.5173 29.864 77.1067 30.056 76.744 30.28C76.392 30.504 76.1093 30.776 75.896 31.096C75.6933 31.416 75.592 31.8053 75.592 32.264C75.592 32.712 75.704 33.128 75.928 33.512C76.152 33.8853 76.4933 34.184 76.952 34.408C77.4107 34.632 77.9973 34.744 78.712 34.744ZM103.267 37V28.504C103.267 27.832 103.208 27.144 103.091 26.44C102.984 25.7253 102.771 25.064 102.451 24.456C102.141 23.848 101.699 23.3573 101.123 22.984C100.557 22.6107 99.8161 22.424 98.8988 22.424C98.3014 22.424 97.7361 22.5253 97.2028 22.728C96.6694 22.92 96.2001 23.2347 95.7948 23.672C95.4001 24.1093 95.0854 24.6853 94.8508 25.4C94.6268 26.1147 94.5148 26.984 94.5148 28.008L92.4348 27.224C92.4348 25.656 92.7281 24.2747 93.3148 23.08C93.9014 21.8747 94.7441 20.936 95.8428 20.264C96.9414 19.592 98.2694 19.256 99.8268 19.256C101.021 19.256 102.024 19.448 102.835 19.832C103.645 20.216 104.301 20.7227 104.803 21.352C105.315 21.9707 105.704 22.648 105.971 23.384C106.237 24.12 106.419 24.84 106.515 25.544C106.611 26.248 106.659 26.8667 106.659 27.4V37H103.267ZM91.1228 37V19.72H94.1148V24.712H94.5148V37H91.1228ZM110.826 16.888V13.64H114.17V16.888H110.826ZM110.826 37V19.72H114.17V37H110.826Z" fill="#87F031"/>
<path d="M103.627 57V48.504C103.627 47.832 103.568 47.144 103.451 46.44C103.344 45.7253 103.131 45.064 102.811 44.456C102.501 43.848 102.059 43.3573 101.483 42.984C100.917 42.6107 100.176 42.424 99.2588 42.424C98.6614 42.424 98.0961 42.5253 97.5628 42.728C97.0294 42.92 96.5601 43.2347 96.1548 43.672C95.7601 44.1093 95.4454 44.6853 95.2108 45.4C94.9868 46.1147 94.8748 46.984 94.8748 48.008L92.7948 47.224C92.7948 45.656 93.0881 44.2747 93.6748 43.08C94.2614 41.8747 95.1041 40.936 96.2028 40.264C97.3014 39.592 98.6294 39.256 100.187 39.256C101.381 39.256 102.384 39.448 103.195 39.832C104.005 40.216 104.661 40.7227 105.163 41.352C105.675 41.9707 106.064 42.648 106.331 43.384C106.597 44.12 106.779 44.84 106.875 45.544C106.971 46.248 107.019 46.8667 107.019 47.4V57H103.627ZM91.4828 57V39.72H94.4748V44.712H94.8748V57H91.4828ZM115.746 57.48C114.466 57.48 113.394 57.2453 112.53 56.776C111.666 56.296 111.01 55.6667 110.562 54.888C110.125 54.0987 109.906 53.2347 109.906 52.296C109.906 51.4213 110.061 50.6533 110.37 49.992C110.68 49.3307 111.138 48.7707 111.746 48.312C112.354 47.8427 113.101 47.464 113.986 47.176C114.754 46.952 115.624 46.7547 116.594 46.584C117.565 46.4133 118.584 46.2533 119.65 46.104C120.728 45.9547 121.794 45.8053 122.85 45.656L121.634 46.328C121.656 44.9733 121.368 43.9707 120.77 43.32C120.184 42.6587 119.17 42.328 117.73 42.328C116.824 42.328 115.992 42.5413 115.234 42.968C114.477 43.384 113.949 44.0773 113.65 45.048L110.53 44.088C110.957 42.6053 111.768 41.4267 112.962 40.552C114.168 39.6773 115.768 39.24 117.762 39.24C119.309 39.24 120.653 39.5067 121.794 40.04C122.946 40.5627 123.789 41.3947 124.322 42.536C124.6 43.1013 124.77 43.6987 124.834 44.328C124.898 44.9573 124.93 45.6347 124.93 46.36V57H121.97V53.048L122.546 53.56C121.832 54.8827 120.92 55.8693 119.81 56.52C118.712 57.16 117.357 57.48 115.746 57.48ZM116.338 54.744C117.288 54.744 118.104 54.5787 118.786 54.248C119.469 53.9067 120.018 53.4747 120.434 52.952C120.85 52.4293 121.122 51.8853 121.25 51.32C121.432 50.808 121.533 50.232 121.554 49.592C121.586 48.952 121.602 48.44 121.602 48.056L122.69 48.456C121.634 48.616 120.674 48.76 119.81 48.888C118.946 49.016 118.162 49.144 117.458 49.272C116.765 49.3893 116.146 49.5333 115.602 49.704C115.144 49.864 114.733 50.056 114.37 50.28C114.018 50.504 113.736 50.776 113.522 51.096C113.32 51.416 113.218 51.8053 113.218 52.264C113.218 52.712 113.33 53.128 113.554 53.512C113.778 53.8853 114.12 54.184 114.578 54.408C115.037 54.632 115.624 54.744 116.338 54.744ZM138.653 57C137.565 57.2133 136.498 57.304 135.453 57.272C134.408 57.24 133.474 57.0373 132.653 56.664C131.832 56.2907 131.213 55.704 130.797 54.904C130.424 54.1893 130.221 53.464 130.189 52.728C130.168 51.9813 130.157 51.1387 130.157 50.2V34.92H133.517V50.04C133.517 50.7333 133.522 51.336 133.533 51.848C133.554 52.36 133.666 52.792 133.869 53.144C134.253 53.8053 134.861 54.184 135.693 54.28C136.536 54.3653 137.522 54.328 138.653 54.168V57ZM126.845 42.408V39.72H138.653V42.408H126.845ZM142.296 36.888V33.64H145.64V36.888H142.296ZM142.296 57V39.72H145.64V57H142.296ZM157.629 57.48C155.901 57.48 154.402 57.0907 153.133 56.312C151.864 55.5333 150.882 54.4613 150.189 53.096C149.506 51.72 149.165 50.136 149.165 48.344C149.165 46.5413 149.517 44.9573 150.221 43.592C150.925 42.216 151.912 41.1493 153.181 40.392C154.45 39.624 155.933 39.24 157.629 39.24C159.357 39.24 160.856 39.6293 162.125 40.408C163.394 41.1867 164.376 42.2587 165.069 43.624C165.762 44.9893 166.109 46.5627 166.109 48.344C166.109 50.1467 165.757 51.736 165.053 53.112C164.36 54.4773 163.378 55.5493 162.109 56.328C160.84 57.096 159.346 57.48 157.629 57.48ZM157.629 54.328C159.282 54.328 160.514 53.7733 161.325 52.664C162.146 51.544 162.557 50.104 162.557 48.344C162.557 46.5413 162.141 45.1013 161.309 44.024C160.488 42.936 159.261 42.392 157.629 42.392C156.509 42.392 155.586 42.648 154.861 43.16C154.136 43.6613 153.597 44.36 153.245 45.256C152.893 46.1413 152.717 47.1707 152.717 48.344C152.717 50.1573 153.133 51.608 153.965 52.696C154.797 53.784 156.018 54.328 157.629 54.328ZM181.433 57V48.504C181.433 47.832 181.374 47.144 181.257 46.44C181.15 45.7253 180.937 45.064 180.617 44.456C180.308 43.848 179.865 43.3573 179.289 42.984C178.724 42.6107 177.982 42.424 177.065 42.424C176.468 42.424 175.902 42.5253 175.369 42.728C174.836 42.92 174.366 43.2347 173.961 43.672C173.566 44.1093 173.252 44.6853 173.017 45.4C172.793 46.1147 172.681 46.984 172.681 48.008L170.601 47.224C170.601 45.656 170.894 44.2747 171.481 43.08C172.068 41.8747 172.91 40.936 174.009 40.264C175.108 39.592 176.436 39.256 177.993 39.256C179.188 39.256 180.19 39.448 181.001 39.832C181.812 40.216 182.468 40.7227 182.969 41.352C183.481 41.9707 183.87 42.648 184.137 43.384C184.404 44.12 184.585 44.84 184.681 45.544C184.777 46.248 184.825 46.8667 184.825 47.4V57H181.433ZM169.289 57V39.72H172.281V44.712H172.681V57H169.289Z" fill="white"/>
</svg>
