<svg width="8" height="10" viewBox="0 0 8 10" fill="none" xmlns="http://www.w3.org/2000/svg">
<path d="M2.06055 1.81816C2.06055 0.814015 2.92884 0 3.99994 0C5.07102 0 5.93933 0.814015 5.93933 1.81816V4.99993C5.93933 6.00405 5.07102 6.81808 3.99994 6.81808C2.92884 6.81808 2.06055 6.00405 2.06055 4.99993V1.81816Z" fill="black"/>
<path d="M1.21212 4.9311V5.0021C1.21212 5.69527 1.50584 6.36004 2.02867 6.85021C2.5515 7.34034 3.26061 7.6157 4 7.6157C4.73939 7.6157 5.44849 7.34034 5.97135 6.85021C6.49416 6.36004 6.78788 5.69527 6.78788 5.0021V4.9311C6.78788 4.68006 7.00495 4.47656 7.27273 4.47656H7.51515C7.78293 4.47656 8 4.68006 8 4.93106V5.0021C8 5.99663 7.57857 6.95048 6.82841 7.6537C6.22264 8.22164 5.44257 8.58855 4.60606 8.70877V9.54749C4.60606 9.79853 4.38899 10.002 4.12121 10.002H3.87879C3.61101 10.002 3.39394 9.79853 3.39394 9.54749V8.70877C2.55744 8.58855 1.77735 8.22164 1.17157 7.6537C0.421425 6.95048 0 5.99663 0 5.0021V4.9311C0 4.68006 0.217076 4.47656 0.484848 4.47656H0.727273C0.995045 4.47656 1.21212 4.68006 1.21212 4.9311Z" fill="black"/>
</svg>
